<svg xmlns="http://www.w3.org/2000/svg" width="23.291" height="19.373" viewBox="0 0 23.291 19.373"><defs><style>.a{fill:#fff;}</style></defs><path class="a" d="M22.92,36.745a9.222,9.222,0,0,1-1.606.542,5.007,5.007,0,0,0,1.322-2.1h0a.263.263,0,0,0-.384-.306h0A9.267,9.267,0,0,1,19.8,35.89a.626.626,0,0,1-.153.019.651.651,0,0,1-.43-.164,5.021,5.021,0,0,0-3.322-1.254,5.369,5.369,0,0,0-1.591.246,4.865,4.865,0,0,0-3.279,3.5A5.356,5.356,0,0,0,10.9,40.09a.18.18,0,0,1-.045.141.186.186,0,0,1-.138.063H10.7a13.166,13.166,0,0,1-9.049-4.835h0a.263.263,0,0,0-.43.034h0a5.027,5.027,0,0,0,.817,6.1,4.5,4.5,0,0,1-1.145-.443h0a.263.263,0,0,0-.39.226h0A5.027,5.027,0,0,0,3.436,46.01H3.329a4.519,4.519,0,0,1-.846-.081h0a.263.263,0,0,0-.3.338h0a5.032,5.032,0,0,0,3.975,3.423,9.266,9.266,0,0,1-5.19,1.576H.388a.384.384,0,0,0-.376.29A.4.4,0,0,0,.2,52a13.782,13.782,0,0,0,6.925,1.867,13.971,13.971,0,0,0,5.918-1.255,13.068,13.068,0,0,0,4.33-3.245,14.225,14.225,0,0,0,2.651-4.441,14.027,14.027,0,0,0,.9-4.86v-.076a.854.854,0,0,1,.32-.665,9.925,9.925,0,0,0,2-2.191h0a.263.263,0,0,0-.325-.386Z" transform="translate(0 -34.491)"/></svg>