<svg xmlns="http://www.w3.org/2000/svg" width="30" height="30" viewBox="0 0 30 30"><defs><style>.a{fill:none;}.b{fill:#f2989d;}</style></defs><path class="a" d="M0,0H30V30H0Z"/><path class="b" d="M25.4,4H4.6A2.675,2.675,0,0,0,2.013,6.75L2,23.25A2.686,2.686,0,0,0,4.6,26H25.4A2.686,2.686,0,0,0,28,23.25V6.75A2.686,2.686,0,0,0,25.4,4Zm-.52,5.844-9.191,6.077a1.254,1.254,0,0,1-1.378,0L5.12,9.844a1.194,1.194,0,0,1-.52-.99,1.1,1.1,0,0,1,1.69-.99L15,13.625l8.71-5.761a1.1,1.1,0,0,1,1.69.99A1.194,1.194,0,0,1,24.88,9.844Z" transform="translate(0)"/></svg>