<svg xmlns="http://www.w3.org/2000/svg" width="30" height="30" viewBox="0 0 30 30"><defs><style>.a{fill:none;}.b{fill:#f2989d;}</style></defs><path class="a" d="M0,0H30V30H0Z"/><path class="b" d="M24.642,19.352l-3.388-.387a2.655,2.655,0,0,0-2.188.76L16.611,22.18A20.071,20.071,0,0,1,7.82,13.389l2.468-2.468a2.655,2.655,0,0,0,.76-2.188l-.387-3.362A2.67,2.67,0,0,0,8.007,3.01H5.7A2.647,2.647,0,0,0,3.031,5.771a22.667,22.667,0,0,0,21.2,21.2A2.647,2.647,0,0,0,26.99,24.3V21.993A2.644,2.644,0,0,0,24.642,19.352Z" transform="translate(0 0)"/></svg>