<svg xmlns="http://www.w3.org/2000/svg" width="40.513" height="40.513" viewBox="0 0 40.513 40.513"><defs><style>.a{fill:none;}.b{fill:#9ccc65;}</style></defs><path class="a" d="M0,0H40.513V40.513H0Z"/><path class="b" d="M24.733,14.539A20.046,20.046,0,0,0,20.277,3.128a1.7,1.7,0,0,0-2.65,0,20.428,20.428,0,0,0-4.676,11.411,23.408,23.408,0,0,1,5.891,4.44A24.236,24.236,0,0,1,24.733,14.539ZM13.761,19.012c-.236-.169-.506-.321-.76-.49C13.255,18.708,13.525,18.844,13.761,19.012ZM24.6,18.59c-.219.152-.456.27-.675.439C24.143,18.86,24.379,18.742,24.6,18.59Zm-5.756,5.773a20.2,20.2,0,0,0-14.905-9.1,1.714,1.714,0,0,0-1.874,1.874A20.556,20.556,0,0,0,15.534,34.576a18.144,18.144,0,0,0,3.325.861,21.842,21.842,0,0,0,3.325-.861A20.535,20.535,0,0,0,35.655,17.139a1.722,1.722,0,0,0-1.874-1.874,20.206,20.206,0,0,0-14.939,9.1Z" transform="translate(1.414 1.717)"/></svg>