<svg xmlns="http://www.w3.org/2000/svg" width="40.686" height="40.686" viewBox="0 0 40.686 40.686"><defs><style>.a{fill:none;}.b{fill:#fff;}</style></defs><path class="a" d="M0,0H40.686V40.686H0Z"/><path class="b" d="M13.84,3.734,7.534,14.041a1.692,1.692,0,0,0,1.441,2.577h12.6a1.692,1.692,0,0,0,1.441-2.577L16.722,3.734a1.683,1.683,0,0,0-2.882,0Z" transform="translate(5.061 2.03)"/><ellipse class="b" cx="7.385" cy="7.774" rx="7.385" ry="7.774" transform="translate(22.273 21.917)"/><path class="b" d="M4.7,27.062H14.867a1.7,1.7,0,0,0,1.7-1.7V15.2a1.7,1.7,0,0,0-1.7-1.7H4.7A1.7,1.7,0,0,0,3,15.2V25.367A1.7,1.7,0,0,0,4.7,27.062Z" transform="translate(2.086 9.386)"/></svg>