<svg xmlns="http://www.w3.org/2000/svg" width="160.439" height="53.63" viewBox="0 0 160.439 53.63"><defs><style>.a{fill:#a6a6a6;}.b{fill:#fff;}</style></defs><g transform="translate(0 0)"><path class="a" d="M147.663,0H12.784c-.492,0-.977,0-1.468,0-.41,0-.818.01-1.232.017A17.718,17.718,0,0,0,7.4.257,8.936,8.936,0,0,0,4.848,1.1a8.631,8.631,0,0,0-2.17,1.58A8.391,8.391,0,0,0,1.1,4.851,8.85,8.85,0,0,0,.261,7.4a17.42,17.42,0,0,0-.24,2.684c-.012.411-.014.824-.02,1.235v30.99c.007.416.008.82.02,1.236a17.419,17.419,0,0,0,.24,2.684A8.832,8.832,0,0,0,1.1,48.785a8.323,8.323,0,0,0,1.58,2.164,8.412,8.412,0,0,0,2.17,1.58,8.984,8.984,0,0,0,2.549.846,18.039,18.039,0,0,0,2.687.237c.414.009.822.014,1.232.014.49,0,.976,0,1.468,0H147.663c.482,0,.972,0,1.453,0,.409,0,.828-.005,1.236-.014a17.8,17.8,0,0,0,2.681-.237,9.123,9.123,0,0,0,2.558-.846,8.417,8.417,0,0,0,2.168-1.58,8.574,8.574,0,0,0,1.584-2.164,8.854,8.854,0,0,0,.83-2.553,18.108,18.108,0,0,0,.249-2.684c.005-.416.005-.82.005-1.236.01-.487.01-.971.01-1.466V12.785c0-.491,0-.978-.01-1.464,0-.411,0-.824-.005-1.235a18.108,18.108,0,0,0-.249-2.684,8.873,8.873,0,0,0-.83-2.552A8.669,8.669,0,0,0,155.592,1.1a9.074,9.074,0,0,0-2.558-.841A17.488,17.488,0,0,0,150.352.02c-.409-.007-.827-.014-1.236-.017-.482,0-.971,0-1.453,0Z" transform="translate(0 0)"/><path d="M11.025,52.158c-.408,0-.807-.005-1.212-.014a17.01,17.01,0,0,1-2.506-.219,7.889,7.889,0,0,1-2.221-.735,7.248,7.248,0,0,1-1.873-1.363,7.134,7.134,0,0,1-1.368-1.872,7.671,7.671,0,0,1-.728-2.222,16.643,16.643,0,0,1-.223-2.514C.884,42.937.873,42,.873,42V11.023s.012-.927.02-1.2a16.585,16.585,0,0,1,.222-2.51,7.717,7.717,0,0,1,.729-2.228A7.2,7.2,0,0,1,3.2,3.211a7.462,7.462,0,0,1,1.88-1.371A7.807,7.807,0,0,1,7.3,1.111,16.874,16.874,0,0,1,9.816.891l1.21-.016H148.812l1.224.017a16.605,16.605,0,0,1,2.492.218,7.962,7.962,0,0,1,2.24.735,7.5,7.5,0,0,1,3.238,3.244,7.727,7.727,0,0,1,.718,2.211,17.423,17.423,0,0,1,.233,2.53c0,.38,0,.788,0,1.193.011.5.011.981.011,1.464v28.06c0,.487,0,.962-.011,1.442,0,.436,0,.835-.005,1.246a17.075,17.075,0,0,1-.229,2.485A7.7,7.7,0,0,1,158,47.959a7.347,7.347,0,0,1-1.362,1.858,7.257,7.257,0,0,1-1.876,1.371,7.859,7.859,0,0,1-2.236.737,16.816,16.816,0,0,1-2.506.219c-.393.009-.8.014-1.2.014l-1.453,0Z" transform="translate(0.297 0.298)"/><g transform="translate(13.369 11.692)"><path class="b" d="M29.811,22.457a6.635,6.635,0,0,1,3.16-5.567A6.792,6.792,0,0,0,27.619,14c-2.251-.236-4.434,1.347-5.581,1.347-1.169,0-2.936-1.324-4.838-1.285a7.126,7.126,0,0,0-6,3.657C8.61,22.206,10.544,28.8,13.028,32.433c1.243,1.777,2.7,3.762,4.6,3.691,1.86-.077,2.554-1.186,4.8-1.186,2.224,0,2.876,1.186,4.815,1.141,2-.032,3.253-1.785,4.452-3.579a14.7,14.7,0,0,0,2.036-4.146,6.411,6.411,0,0,1-3.914-5.9Z" transform="translate(-9.972 -6.93)"/><path class="b" d="M23.144,13.4a6.533,6.533,0,0,0,1.494-4.68,6.647,6.647,0,0,0-4.3,2.225A6.216,6.216,0,0,0,18.8,15.452a5.5,5.5,0,0,0,4.34-2.052Z" transform="translate(-6.967 -8.72)"/><g transform="translate(32.789 12.269)"><path class="b" d="M44.986,30.227H38.639l-1.524,4.5H34.427l6.011-16.649h2.793l6.011,16.649H46.508ZM39.3,28.151h5.03l-2.48-7.3h-.069Z" transform="translate(-34.427 -17.8)"/><path class="b" d="M58.066,27.545c0,3.772-2.019,6.2-5.066,6.2a4.115,4.115,0,0,1-3.819-2.124h-.058v6.012H46.631V21.475h2.412v2.019h.046a4.306,4.306,0,0,1,3.865-2.146C56.035,21.348,58.066,23.784,58.066,27.545Zm-2.561,0c0-2.458-1.27-4.073-3.208-4.073-1.9,0-3.184,1.65-3.184,4.073,0,2.446,1.281,4.084,3.184,4.084,1.938,0,3.208-1.6,3.208-4.084Z" transform="translate(-30.269 -16.687)"/><path class="b" d="M68.03,27.545c0,3.772-2.019,6.2-5.066,6.2a4.115,4.115,0,0,1-3.819-2.124h-.058v6.012H56.6V21.475h2.412v2.019h.046a4.306,4.306,0,0,1,3.865-2.146C66,21.348,68.03,23.784,68.03,27.545Zm-2.561,0c0-2.458-1.27-4.073-3.208-4.073-1.9,0-3.184,1.65-3.184,4.073,0,2.446,1.281,4.084,3.184,4.084,1.938,0,3.208-1.6,3.208-4.084Z" transform="translate(-26.873 -16.687)"/><path class="b" d="M72.359,30.159c.185,1.651,1.789,2.735,3.98,2.735,2.1,0,3.611-1.084,3.611-2.573,0-1.292-.911-2.066-3.069-2.6l-2.158-.52c-3.057-.738-4.477-2.168-4.477-4.488,0-2.873,2.5-4.846,6.058-4.846,3.518,0,5.93,1.973,6.011,4.846H79.8c-.151-1.662-1.524-2.664-3.531-2.664s-3.381,1.015-3.381,2.492c0,1.177.877,1.87,3.023,2.4l1.834.45c3.416.808,4.835,2.18,4.835,4.615,0,3.115-2.481,5.066-6.427,5.066-3.692,0-6.185-1.905-6.346-4.916Z" transform="translate(-22.372 -17.871)"/><path class="b" d="M84.431,19.3v2.873h2.308v1.973H84.431v6.692c0,1.04.462,1.524,1.477,1.524a7.785,7.785,0,0,0,.82-.058v1.961a6.843,6.843,0,0,1-1.384.115c-2.458,0-3.416-.923-3.416-3.277V24.146H80.163V22.172h1.765V19.3Z" transform="translate(-18.843 -17.384)"/><path class="b" d="M86.065,27.55c0-3.819,2.249-6.219,5.757-6.219s5.758,2.4,5.758,6.219-2.227,6.219-5.758,6.219S86.065,31.38,86.065,27.55Zm8.977,0c0-2.62-1.2-4.166-3.22-4.166S88.6,24.942,88.6,27.55c0,2.63,1.2,4.165,3.218,4.165s3.22-1.535,3.22-4.165Z" transform="translate(-16.832 -16.692)"/><path class="b" d="M96.186,21.475h2.376v2.066h.058a2.9,2.9,0,0,1,2.92-2.193,3.843,3.843,0,0,1,.854.093v2.331a3.483,3.483,0,0,0-1.12-.151,2.511,2.511,0,0,0-2.6,2.793v7.2H96.186Z" transform="translate(-13.384 -16.687)"/><path class="b" d="M112.167,30.054c-.335,2.2-2.481,3.716-5.227,3.716-3.531,0-5.723-2.366-5.723-6.162s2.2-6.277,5.618-6.277c3.358,0,5.47,2.307,5.47,5.987v.854h-8.573v.151A3.161,3.161,0,0,0,107,31.761a2.746,2.746,0,0,0,2.8-1.707Zm-8.423-3.623h6.069a2.919,2.919,0,0,0-2.977-3.081,3.073,3.073,0,0,0-3.091,3.081Z" transform="translate(-11.669 -16.692)"/></g></g></g><g transform="translate(47.825 11.312)"><path class="b" d="M38.561,8.733a3.539,3.539,0,0,1,3.764,3.975c0,2.556-1.381,4.025-3.764,4.025h-2.89v-8ZM36.913,15.6h1.508a2.515,2.515,0,0,0,2.638-2.877,2.522,2.522,0,0,0-2.638-2.861H36.913Z" transform="translate(-35.671 -8.339)"/><path class="b" d="M41.684,13.24a2.86,2.86,0,1,1,5.694,0,2.861,2.861,0,1,1-5.694,0Zm4.469,0c0-1.309-.588-2.074-1.62-2.074s-1.618.765-1.618,2.074.583,2.079,1.618,2.079S46.153,14.554,46.153,13.24Z" transform="translate(-33.627 -7.868)"/><path class="b" d="M53.278,16.232H52.042l-1.248-4.446H50.7l-1.243,4.446H48.234l-1.664-6.037h1.209L48.859,14.8h.089l1.241-4.607h1.143L52.574,14.8h.094l1.076-4.607h1.191Z" transform="translate(-31.957 -7.838)"/><path class="b" d="M53.854,10.226H55v.959h.089a1.807,1.807,0,0,1,1.8-1.076,1.964,1.964,0,0,1,2.09,2.245v3.908H57.789V12.654c0-.97-.422-1.453-1.3-1.453a1.385,1.385,0,0,0-1.442,1.53v3.532H53.854Z" transform="translate(-29.475 -7.869)"/><path class="b" d="M59.094,8.437h1.191v8.394H59.094Z" transform="translate(-27.69 -8.437)"/><path class="b" d="M61.221,13.24a2.86,2.86,0,1,1,5.695,0,2.861,2.861,0,1,1-5.695,0Zm4.469,0c0-1.309-.588-2.074-1.62-2.074s-1.618.765-1.618,2.074.583,2.079,1.618,2.079S65.69,14.554,65.69,13.24Z" transform="translate(-26.969 -7.868)"/><path class="b" d="M66.4,14.554c0-1.087.809-1.713,2.245-1.8l1.635-.094v-.521c0-.638-.422-1-1.236-1-.665,0-1.126.244-1.258.671H66.634c.122-1.037,1.1-1.7,2.467-1.7,1.514,0,2.367.753,2.367,2.029v4.125H70.321v-.848h-.094a2.031,2.031,0,0,1-1.813.948A1.824,1.824,0,0,1,66.4,14.554Zm3.881-.516v-.5l-1.474.094c-.831.056-1.209.338-1.209.871s.471.86,1.12.86a1.423,1.423,0,0,0,1.563-1.32Z" transform="translate(-25.2 -7.868)"/><path class="b" d="M71.348,13.81c0-1.908.981-3.116,2.506-3.116a1.99,1.99,0,0,1,1.851,1.059h.089V8.437h1.191v8.394H75.844v-.954H75.75a2.1,2.1,0,0,1-1.9,1.053C72.318,16.931,71.348,15.722,71.348,13.81Zm1.231,0c0,1.281.6,2.051,1.613,2.051s1.625-.782,1.625-2.046-.627-2.051-1.625-2.051-1.613.776-1.613,2.046Z" transform="translate(-23.514 -8.437)"/><path class="b" d="M79.233,13.24a2.86,2.86,0,1,1,5.694,0,2.861,2.861,0,1,1-5.694,0Zm4.469,0c0-1.309-.588-2.074-1.62-2.074s-1.618.765-1.618,2.074.583,2.079,1.618,2.079S83.7,14.554,83.7,13.24Z" transform="translate(-20.832 -7.868)"/><path class="b" d="M84.669,10.226h1.147v.959h.089a1.807,1.807,0,0,1,1.8-1.076,1.964,1.964,0,0,1,2.09,2.245v3.908H88.605V12.654c0-.97-.422-1.453-1.3-1.453a1.385,1.385,0,0,0-1.442,1.53v3.532H84.669Z" transform="translate(-18.975 -7.869)"/><path class="b" d="M94.062,9.074V10.6H95.37v1H94.062v3.1c0,.632.261.909.854.909a3.977,3.977,0,0,0,.454-.027v.992a3.909,3.909,0,0,1-.648.061c-1.325,0-1.853-.466-1.853-1.63V11.608h-.958v-1h.958V9.074Z" transform="translate(-16.508 -8.22)"/><path class="b" d="M95.7,8.437h1.181v3.327h.094a1.858,1.858,0,0,1,1.841-1.081,1.989,1.989,0,0,1,2.079,2.251v3.9H99.707v-3.6c0-.964-.449-1.453-1.291-1.453a1.41,1.41,0,0,0-1.52,1.531v3.526H95.7Z" transform="translate(-15.215 -8.437)"/><path class="b" d="M106.141,14.632a2.451,2.451,0,0,1-2.616,1.747,2.742,2.742,0,0,1-2.788-3.116,2.785,2.785,0,0,1,2.784-3.154c1.68,0,2.693,1.148,2.693,3.043v.416H101.95v.067a1.6,1.6,0,0,0,1.608,1.73,1.447,1.447,0,0,0,1.436-.732Zm-4.191-1.946H105a1.457,1.457,0,0,0-1.486-1.564,1.544,1.544,0,0,0-1.563,1.564Z" transform="translate(-13.509 -7.868)"/></g></svg>