<svg xmlns="http://www.w3.org/2000/svg" width="40.513" height="40.513" viewBox="0 0 40.513 40.513"><defs><style>.a{fill:none;}.b{fill:#ef5350;}</style></defs><path class="a" d="M0,0H40.513V40.513H0Z"/><path class="b" d="M18.863,2a16.88,16.88,0,1,0,16.9,16.88A16.872,16.872,0,0,0,18.863,2Zm.017,30.384a13.5,13.5,0,1,1,13.5-13.5A13.5,13.5,0,0,1,18.88,32.384Zm5.908-15.192a2.532,2.532,0,1,0-2.532-2.532A2.529,2.529,0,0,0,24.788,17.192Zm-11.816,0A2.532,2.532,0,1,0,10.44,14.66,2.529,2.529,0,0,0,12.972,17.192Zm5.908,4.22a9.265,9.265,0,0,0-8.018,4.642A.854.854,0,0,0,11.6,27.32H26.156a.854.854,0,0,0,.743-1.266A9.265,9.265,0,0,0,18.88,21.412Z" transform="translate(1.376 1.376)"/></svg>