<svg xmlns="http://www.w3.org/2000/svg" width="40.513" height="40.513" viewBox="0 0 40.513 40.513"><defs><style>.a{fill:none;}.b{fill:#26c6da;}</style></defs><path class="a" d="M0,0H40.513V40.513H0Z"/><path class="b" d="M18.88,2a16.88,16.88,0,1,0,16.88,16.88A16.886,16.886,0,0,0,18.88,2Zm2.38,27.16v.979a2.255,2.255,0,0,1-2.245,2.245H19a2.255,2.255,0,0,1-2.245-2.245V29.127a6.694,6.694,0,0,1-5.081-3.781,1.437,1.437,0,0,1,1.35-1.958h.405A1.5,1.5,0,0,1,14.8,24.4c.49,1.266,1.772,2.144,4.237,2.144,3.309,0,4.051-1.654,4.051-2.684,0-1.4-.743-2.718-4.507-3.612-4.186-1.013-7.056-2.735-7.056-6.2,0-2.9,2.346-4.794,5.25-5.419V7.621a2.255,2.255,0,0,1,2.245-2.245h.017a2.255,2.255,0,0,1,2.245,2.245V8.668a6.008,6.008,0,0,1,4.44,3.815A1.435,1.435,0,0,1,24.35,14.39h-.439a1.365,1.365,0,0,1-1.3-1.047c-.388-1.283-1.452-2.11-3.579-2.11-2.532,0-4.051,1.148-4.051,2.768,0,1.418,1.1,2.346,4.507,3.224s7.056,2.346,7.056,6.6C26.51,26.915,24.2,28.6,21.26,29.16Z" transform="translate(1.376 1.376)"/></svg>