<svg xmlns="http://www.w3.org/2000/svg" width="89.937" height="82.507" viewBox="0 0 89.937 82.507"><defs><style>.a{fill:#4a696f;}.b{fill:#384949;}.c{fill:#c85b61;}.d{fill:#9f2f35;}.e{fill:#f4ced5;}.f{fill:#ffb516;}.g{fill:#ff9202;}</style></defs><path class="a" d="M226.809,382.338v5.27a7.9,7.9,0,1,1-15.809,0v-5.27a2.609,2.609,0,0,1,2.635-2.635h10.54A2.609,2.609,0,0,1,226.809,382.338Zm0,0" transform="translate(-173.936 -313.005)"/><path class="b" d="M263.9,382.338v5.27a7.894,7.894,0,0,1-7.9,7.9V379.7h5.27A2.609,2.609,0,0,1,263.9,382.338Zm0,0" transform="translate(-211.031 -313.005)"/><path class="c" d="M119.984,19.7a28.978,28.978,0,0,0-16.653,52.7,8.749,8.749,0,0,1,3.478,7.219v.685a7.894,7.894,0,0,0,7.9,7.9h10.539a7.894,7.894,0,0,0,7.9-7.9v-.843a9.687,9.687,0,0,1,4.163-7.588A28.957,28.957,0,0,0,119.984,19.7Zm0,0" transform="translate(-75.015 -16.242)"/><path class="d" d="M284.984,48.687a28.754,28.754,0,0,1-11.646,23.187,9.687,9.687,0,0,0-4.163,7.588v.843a7.894,7.894,0,0,1-7.9,7.9H256V19.7A28.967,28.967,0,0,1,284.984,48.687Zm0,0" transform="translate(-211.031 -16.242)"/><path class="e" d="M459.08,174.973h-5.445a2.635,2.635,0,0,1,0-5.27h5.445a2.635,2.635,0,1,1,0,5.27Zm0,0" transform="translate(-371.778 -139.893)"/><path class="e" d="M8.08,174.973H2.635a2.635,2.635,0,1,1,0-5.27H8.08a2.635,2.635,0,1,1,0,5.27Zm0,0" transform="translate(0 -139.893)"/><path class="e" d="M390.264,8.224a2.634,2.634,0,0,1,0-3.726L393.99.772A2.635,2.635,0,0,1,397.716,4.5L393.99,8.224A2.634,2.634,0,0,1,390.264,8.224Zm0,0" transform="translate(-321.075 0)"/><path class="e" d="M72.069,326.419a2.634,2.634,0,0,1,0-3.726l3.726-3.726a2.635,2.635,0,1,1,3.726,3.726l-3.726,3.726A2.634,2.634,0,0,1,72.069,326.419Zm0,0" transform="translate(-58.773 -262.302)"/><path class="e" d="M75.795,8.224,72.069,4.5A2.635,2.635,0,0,1,75.795.772L79.521,4.5a2.635,2.635,0,0,1-3.726,3.726Zm0,0" transform="translate(-58.773 0)"/><path class="e" d="M393.99,326.419l-3.726-3.726a2.635,2.635,0,1,1,3.726-3.726l3.726,3.726a2.635,2.635,0,0,1-3.726,3.726Zm0,0" transform="translate(-321.075 -262.302)"/><path class="f" d="M196.428,101.156l-13.913-9.222,4.269-8.484a2.649,2.649,0,0,0-.843-3.32,2.575,2.575,0,0,0-3.373.316L166.759,96.256a2.6,2.6,0,0,0-.79,2.108,2.907,2.907,0,0,0,1.159,1.949l13.913,9.222-4.269,8.484a2.65,2.65,0,0,0,.843,3.32,2.576,2.576,0,0,0,3.373-.316L196.8,105.214a2.6,2.6,0,0,0,.79-2.108A2.909,2.909,0,0,0,196.428,101.156Zm0,0" transform="translate(-136.81 -65.656)"/><path class="g" d="M271.809,103.106a2.6,2.6,0,0,1-.79,2.108L256,120.233v-39l.79-.79a2.575,2.575,0,0,1,3.372-.316,2.65,2.65,0,0,1,.843,3.32l-4.269,8.484,13.913,9.222A2.909,2.909,0,0,1,271.809,103.106Zm0,0" transform="translate(-211.031 -65.656)"/></svg>