<svg xmlns="http://www.w3.org/2000/svg" width="24.673" height="23.576" viewBox="0 0 24.673 23.576"><defs><style>.a{fill:#fff;}</style></defs><path class="a" d="M24.673,24.012v9.121H19.385V24.623c0-2.138-.765-3.6-2.679-3.6a2.894,2.894,0,0,0-2.713,1.934,3.618,3.618,0,0,0-.175,1.289v8.884H8.527s.071-14.414,0-15.908h5.289v2.255c-.011.017-.025.035-.035.051h.035v-.051a5.252,5.252,0,0,1,4.767-2.629C22.064,16.852,24.673,19.126,24.673,24.012ZM2.993,9.558a2.757,2.757,0,1,0-.07,5.5h.035a2.758,2.758,0,1,0,.035-5.5ZM.314,33.134H5.6V17.226H.314Z" transform="translate(0 -9.558)"/></svg>