<svg xmlns="http://www.w3.org/2000/svg" xmlns:xlink="http://www.w3.org/1999/xlink" width="110" height="110" viewBox="0 0 110 110">
  <defs>
    <clipPath id="clip-path">
      <rect id="Rectangle_1922" data-name="Rectangle 1922" width="110" height="110" transform="translate(679 3522)" fill="#f2989d" opacity="0.5"/>
    </clipPath>
  </defs>
  <g id="Mask_Group_9" data-name="Mask Group 9" transform="translate(-679 -3522)" clip-path="url(#clip-path)">
    <g id="Group_5525" data-name="Group 5525" transform="translate(561 3208.001)">
      <g id="Group_1738" data-name="Group 1738" transform="translate(137 328)">
        <path id="Path_3152" data-name="Path 3152" d="M665.077,372.81l-.13,1.751a36.408,36.408,0,0,1-3.826,12.515A35.515,35.515,0,0,1,642.077,404.3q-1.237.489-2.568.913l-.99-3.107a36.329,36.329,0,0,0,7.138-3.122,31.59,31.59,0,0,0,12.5-13.263,35.627,35.627,0,0,0,3.279-9.646H649.409v-3.26Z" transform="translate(-593.02 -367.41)" fill="#f2989d"/>
        <path id="Path_3153" data-name="Path 3153" d="M644.6,404.313A35.508,35.508,0,0,0,663.639,387.1a36.34,36.34,0,0,0,3.826-12.515l.13-1.751h1.342l-.13,1.751a36.362,36.362,0,0,1-3.826,12.515,35.515,35.515,0,0,1-19.041,17.217q-1.237.489-2.57.915l-.13-.408Q643.934,404.572,644.6,404.313Z" transform="translate(-596.835 -367.426)" fill="#fff" opacity="0.1"/>
        <path id="Path_3154" data-name="Path 3154" d="M428.077,402.1l-.99,3.107q-1.333-.426-2.57-.915a35.507,35.507,0,0,1-19.041-17.217,36.338,36.338,0,0,1-3.826-12.515l-.13-1.751h15.66v3.26H405.154a35.648,35.648,0,0,0,3.289,9.646,31.57,31.57,0,0,0,12.494,13.261,36.244,36.244,0,0,0,7.14,3.124Z" transform="translate(-401.47 -367.41)" fill="#f2989d"/>
        <path id="Path_3155" data-name="Path 3155" d="M425.6,404.313A35.507,35.507,0,0,1,406.559,387.1a36.336,36.336,0,0,1-3.826-12.515l-.13-1.751H401.26l.13,1.751a36.359,36.359,0,0,0,3.826,12.515,35.515,35.515,0,0,0,19.041,17.217q1.237.489,2.57.915l.13-.408Q426.265,404.572,425.6,404.313Z" transform="translate(-401.26 -367.426)" fill="#fff" opacity="0.1"/>
        <path id="Path_3156" data-name="Path 3156" d="M531.1,586.779v17.58H494.92v-17.58l1.151-1.534c11.725-4.161,14.1-15.014,14.575-19.308a17.637,17.637,0,0,0,.121-1.787h4.474a17.655,17.655,0,0,0,.121,1.787c.481,4.294,2.857,15.15,14.575,19.308Z" transform="translate(-476.959 -522.056)" fill="#f2989d"/>
        <rect id="Rectangle_1717" data-name="Rectangle 1717" width="36.182" height="2.205" transform="translate(17.961 64.723)" fill="#c85b61"/>
        <path id="Path_3157" data-name="Path 3157" d="M497.988,585.245c11.725-4.161,14.1-15.014,14.575-19.308a17.619,17.619,0,0,0,.121-1.787h-1.918a17.654,17.654,0,0,1-.121,1.787c-.481,4.294-2.857,15.15-14.575,19.308l-1.151,1.534v17.58h1.918v-17.58Z" transform="translate(-476.959 -522.056)" fill="#fff" opacity="0.1"/>
        <path id="Path_3158" data-name="Path 3158" d="M466.26,372.81H469.5v3.26h-2.957Q466.373,374.459,466.26,372.81Z" transform="translate(-453.795 -367.41)" opacity="0.1"/>
        <path id="Path_3159" data-name="Path 3159" d="M509.91,512.384l-.99,3.107q-1.333-.426-2.57-.915a34.355,34.355,0,0,1-3.58-5.316,36.238,36.238,0,0,0,7.14,3.124Z" transform="translate(-482.585 -477.692)" opacity="0.1"/>
        <path id="Path_3160" data-name="Path 3160" d="M638.51,512.392a36.33,36.33,0,0,0,7.138-3.122,34.494,34.494,0,0,1-3.58,5.318q-1.237.489-2.568.913Z" transform="translate(-593.012 -477.7)" opacity="0.1"/>
        <path id="Path_3161" data-name="Path 3161" d="M581.676,565.937a12.4,12.4,0,0,1-4.716,0,17.653,17.653,0,0,0,.121-1.787h4.474A17.636,17.636,0,0,0,581.676,565.937Z" transform="translate(-543.266 -522.056)" opacity="0.1"/>
        <path id="Path_3162" data-name="Path 3162" d="M468.26,344.65c.082,24.175,10.438,43.724,23.2,43.724s23.12-19.549,23.2-43.724Z" transform="translate(-455.411 -344.65)" fill="#c85b61"/>
        <path id="Path_3163" data-name="Path 3163" d="M472.383,344.65H468.26c.082,24.175,10.438,43.724,23.2,43.724a12.531,12.531,0,0,0,2.062-.175C481.724,386.228,472.462,367.509,472.383,344.65Z" transform="translate(-455.411 -344.65)" fill="#fff" opacity="0.1"/>
        <rect id="Rectangle_1718" data-name="Rectangle 1718" width="24.61" height="6.328" transform="translate(24.465 71.452)" fill="#fff"/>
        <path id="Path_3164" data-name="Path 3164" d="M498.241,594.363H521.7V593.5H497.09v6.328h1.151Z" transform="translate(-473.343 -522.048)" fill="#760f14"/>
      </g>
      <g id="Rounded" transform="translate(167.16 338.464)">
        <path id="Path_3136" data-name="Path 3136" d="M9.588,13.408l2.98,1.8a.716.716,0,0,0,1.07-.776l-.79-3.389,2.635-2.283a.717.717,0,0,0-.409-1.257l-3.468-.294-1.357-3.2a.718.718,0,0,0-1.321,0L7.57,7.2,4.1,7.5a.717.717,0,0,0-.409,1.257l2.635,2.283-.79,3.389a.716.716,0,0,0,1.07.776Z" transform="translate(-3.443 -3.573)" fill="#ffb516"/>
      </g>
    </g>
  </g>
</svg>
