<svg xmlns="http://www.w3.org/2000/svg" xmlns:xlink="http://www.w3.org/1999/xlink" width="110" height="110" viewBox="0 0 110 110">
  <defs>
    <clipPath id="clip-path">
      <rect id="Rectangle_1918" data-name="Rectangle 1918" width="110" height="110" transform="translate(679 2683)" fill="#f2989d" opacity="0.5"/>
    </clipPath>
  </defs>
  <g id="Mask_Group_12" data-name="Mask Group 12" transform="translate(-679 -2683)" clip-path="url(#clip-path)">
    <g id="Group_5424" data-name="Group 5424" transform="translate(690 2693)">
      <g id="Group_5465" data-name="Group 5465" transform="translate(2.722 0)">
        <g id="Group_5464" data-name="Group 5464" transform="translate(19.146)">
          <path id="Path_4156" data-name="Path 4156" d="M0,38.885S8.529,37.25,20.785,26.122,39.075-.083,40.535.03s7.914-2.663,19.293,24.055,6.423,32.708,4.01,32.589S45.172,51.524,34.908,52.4s-23.566,5.834-23.566,5.834Z" transform="translate(-0.001 0.003)" fill="#f2989d"/>
        </g>
        <path id="Path_4159" data-name="Path 4159" d="M68.24,98.466l5.47,11.511,2.92-.721L95.1,125.171l5.57-10.195s-11.034-5.132-12.989-9.173.457-4.881.457-4.881L83.053,94.8Z" transform="translate(-57.278 -35.397)" fill="#9f2f35"/>
        <path id="Path_4158" data-name="Path 4158" d="M86.676,74.954l2.738,5.577,1.222,2.5a7.172,7.172,0,0,0,9.261,3.44l18.347-5.815L108.35,56.2,89.928,65.361A7.179,7.179,0,0,0,86.676,74.954Z" transform="translate(-85.94 -20.984)" fill="#c85b61"/>
        <path id="Path_4160" data-name="Path 4160" d="M20.618,26.865c6.047,14.468,8.371,27.276,5.194,28.6S15.154,46.145,9.107,31.677.736,4.4,3.913,3.073,14.571,12.39,20.618,26.865Z" transform="translate(57.359 -1.103)" fill="#f4ced5"/>
      </g>
      <path id="Path_4162" data-name="Path 4162" d="M108.612,98.15,95.14,106.214l-1.56-3.283Z" transform="translate(-78.372 -36.648)" fill="#760f14"/>
      <path id="Path_4161" data-name="Path 4161" d="M132.913,94.4l4.969-1.41L135,87.11,131.24,89.3Z" transform="translate(-131.24 -32.526)" fill="#760f14"/>
      <path id="Path_4163" data-name="Path 4163" d="M131.691,87.11l2.882,5.877-1.021.288-2.312-5.9Z" transform="translate(-127.932 -32.526)" fill="#4d0004"/>
      <path id="Path_4164" data-name="Path 4164" d="M89.994,79.93,93.365,78.8c-.113.038-10.777-19.663-10.777-19.663l-.852.382L89.65,79.279" transform="translate(-55.707 -22.081)" fill="#4d0004"/>
      <path id="Path_4165" data-name="Path 4165" d="M113.159,86.671c.069.163,2.55-.727,5.552-1.98s5.376-2.4,5.307-2.563-2.55.727-5.552,1.98S113.09,86.515,113.159,86.671Z" transform="translate(-106.047 -30.658)" fill="#4d0004"/>
      <path id="Path_4166" data-name="Path 4166" d="M117.129,81.136c.075.157,2.325-.714,5.025-1.955s4.837-2.369,4.762-2.531-2.325.714-5.025,1.955S117.06,80.973,117.129,81.136Z" transform="translate(-111.433 -28.613)" fill="#4d0004"/>
      <path id="Path_4167" data-name="Path 4167" d="M111.809,92.827c.025.088.614-.031,1.554-.294.47-.132,1.028-.295,1.648-.489s1.253-.5,1.936-.79a20.529,20.529,0,0,0,4.756-2.488c-.075-.175-2.3.739-5.007,1.9-.677.282-1.31.6-1.9.827s-1.128.426-1.573.608C112.329,92.47,111.784,92.74,111.809,92.827Z" transform="translate(-102.886 -33.136)" fill="#4d0004"/>
      <path id="Path_4168" data-name="Path 4168" d="M14.324,34.88s7.494-4.361,11.247,5.708-4.048,11.485-4.048,11.485A66.265,66.265,0,0,1,14.324,34.88Z" transform="translate(53.311 -12.672)" fill="#ff9202"/>
      <path id="Path_4169" data-name="Path 4169" d="M14.138,16.15a11.43,11.43,0,0,0,.232,1.911c.2,1.222.476,3,.89,5.176q.423,1.617.921,3.509c.169.633.338,1.285.52,1.955.088.338.182.677.269,1.021s.232.683.351,1.028c.489,1.385,1.009,2.838,1.541,4.342.132.376.269.758.407,1.14s.326.746.489,1.128c.338.752.683,1.516,1.034,2.287s.7,1.535,1.034,2.287c.175.37.326.758.526,1.109s.388.708.583,1.059c.777,1.4,1.523,2.744,2.237,4.029.182.32.345.645.539.946s.395.6.589.884c.388.576.764,1.14,1.128,1.686.727,1.084,1.4,2.093,2.03,3.014,1.36,1.748,2.5,3.127,3.29,4.085a11.1,11.1,0,0,0,1.278,1.441A11.2,11.2,0,0,0,32.942,58.6c-.758-1.021-1.823-2.45-3.127-4.2q-.893-1.4-1.949-3.039c-.351-.545-.714-1.109-1.09-1.686-.188-.288-.376-.583-.57-.884s-.345-.627-.52-.946c-.7-1.285-1.429-2.625-2.187-4.023-.188-.351-.382-.7-.576-1.053s-.338-.733-.514-1.1c-.338-.746-.677-1.5-1.021-2.275s-.689-1.523-1.028-2.268c-.163-.376-.351-.739-.489-1.115s-.276-.758-.407-1.128q-.818-2.237-1.566-4.3c-.119-.345-.257-.677-.363-1.015s-.188-.677-.282-1.015q-.282-1-.545-1.936c-.357-1.247-.683-2.406-.99-3.471-.451-2.137-.821-3.879-1.084-5.119A12.067,12.067,0,0,0,14.138,16.15Z" transform="translate(45.996 -6.029)" fill="#760f14"/>
    </g>
  </g>
</svg>
