<svg xmlns="http://www.w3.org/2000/svg" xmlns:xlink="http://www.w3.org/1999/xlink" width="110" height="110" viewBox="0 0 110 110">
  <defs>
    <clipPath id="clip-path">
      <rect id="Rectangle_1921" data-name="Rectangle 1921" width="110" height="110" transform="translate(679 3304)" fill="#f2989d" opacity="0.5"/>
    </clipPath>
  </defs>
  <g id="Mask_Group_10" data-name="Mask Group 10" transform="translate(-679 -3304)" clip-path="url(#clip-path)">
    <g id="Group_5524" data-name="Group 5524" transform="translate(242.077 110.268)">
      <g id="Group_3860" data-name="Group 3860" transform="translate(452.923 3200.732)">
        <g id="Group_3855" data-name="Group 3855" transform="translate(0 0)">
          <g id="Group_3854" data-name="Group 3854">
            <g id="Group_3853" data-name="Group 3853">
              <rect id="Rectangle_1741" data-name="Rectangle 1741" width="79" height="96" rx="3.958" transform="translate(0 0)" fill="#f4ced5"/>
            </g>
          </g>
        </g>
      </g>
      <g id="Group_3809" data-name="Group 3809" transform="translate(460.909 3210.464)">
        <g id="Group_3788" data-name="Group 3788">
          <g id="Group_3787" data-name="Group 3787">
            <g id="Group_3772" data-name="Group 3772" transform="translate(24.157 23.808)">
              <g id="Group_3771" data-name="Group 3771">
                <rect id="Rectangle_1733" data-name="Rectangle 1733" width="5.226" height="39.447" fill="#c85b61"/>
              </g>
            </g>
            <g id="Group_3774" data-name="Group 3774" transform="translate(16.105 40.408)">
              <g id="Group_3773" data-name="Group 3773">
                <rect id="Rectangle_1734" data-name="Rectangle 1734" width="5.226" height="22.847" fill="#9f2f35"/>
              </g>
            </g>
            <g id="Group_3776" data-name="Group 3776" transform="translate(8.053 36.843)">
              <g id="Group_3775" data-name="Group 3775">
                <rect id="Rectangle_1735" data-name="Rectangle 1735" width="5.226" height="26.412" fill="#c85b61"/>
              </g>
            </g>
            <g id="Group_3778" data-name="Group 3778" transform="translate(0 52.606)">
              <g id="Group_3777" data-name="Group 3777">
                <rect id="Rectangle_1736" data-name="Rectangle 1736" width="5.226" height="10.649" fill="#9f2f35"/>
              </g>
            </g>
            <g id="Group_3780" data-name="Group 3780" transform="translate(40.263 15.191)">
              <g id="Group_3779" data-name="Group 3779">
                <rect id="Rectangle_1737" data-name="Rectangle 1737" width="5.226" height="48.064" fill="#c85b61"/>
              </g>
            </g>
            <g id="Group_3782" data-name="Group 3782" transform="translate(32.21 19.582)">
              <g id="Group_3781" data-name="Group 3781">
                <rect id="Rectangle_1738" data-name="Rectangle 1738" width="5.226" height="43.673" fill="#9f2f35"/>
              </g>
            </g>
            <g id="Group_3784" data-name="Group 3784" transform="translate(56.368 10.432)">
              <g id="Group_3783" data-name="Group 3783">
                <rect id="Rectangle_1739" data-name="Rectangle 1739" width="5.226" height="52.823" fill="#c85b61"/>
              </g>
            </g>
            <g id="Group_3786" data-name="Group 3786" transform="translate(48.315)">
              <g id="Group_3785" data-name="Group 3785">
                <rect id="Rectangle_1740" data-name="Rectangle 1740" width="5.226" height="63.255" fill="#ff9202"/>
              </g>
            </g>
          </g>
        </g>
        <g id="Group_3790" data-name="Group 3790" transform="translate(0.469 67.979)">
          <g id="Group_3789" data-name="Group 3789">
            <path id="Path_3182" data-name="Path 3182" d="M69.963,309.195a6.076,6.076,0,0,1-2.311.227,6.08,6.08,0,0,1-2.311-.227,6.07,6.07,0,0,1,2.311-.228A6.066,6.066,0,0,1,69.963,309.195Z" transform="translate(-65.341 -308.967)" fill="#760f14"/>
          </g>
        </g>
        <g id="Group_3792" data-name="Group 3792" transform="translate(8.408 67.979)">
          <g id="Group_3791" data-name="Group 3791">
            <path id="Path_3183" data-name="Path 3183" d="M79.065,309.195a6.076,6.076,0,0,1-2.311.227,6.08,6.08,0,0,1-2.311-.227,6.07,6.07,0,0,1,2.311-.228A6.066,6.066,0,0,1,79.065,309.195Z" transform="translate(-74.443 -308.967)" fill="#760f14"/>
          </g>
        </g>
        <g id="Group_3794" data-name="Group 3794" transform="translate(16.346 67.979)">
          <g id="Group_3793" data-name="Group 3793">
            <path id="Path_3184" data-name="Path 3184" d="M88.167,309.195a6.076,6.076,0,0,1-2.311.227,6.08,6.08,0,0,1-2.311-.227,6.07,6.07,0,0,1,2.311-.228A6.066,6.066,0,0,1,88.167,309.195Z" transform="translate(-83.545 -308.967)" fill="#760f14"/>
          </g>
        </g>
        <g id="Group_3796" data-name="Group 3796" transform="translate(24.284 67.979)">
          <g id="Group_3795" data-name="Group 3795">
            <path id="Path_3185" data-name="Path 3185" d="M97.269,309.195a6.076,6.076,0,0,1-2.311.227,6.08,6.08,0,0,1-2.311-.227,6.07,6.07,0,0,1,2.311-.228A6.066,6.066,0,0,1,97.269,309.195Z" transform="translate(-92.647 -308.967)" fill="#760f14"/>
          </g>
        </g>
        <g id="Group_3798" data-name="Group 3798" transform="translate(32.222 67.979)">
          <g id="Group_3797" data-name="Group 3797">
            <path id="Path_3186" data-name="Path 3186" d="M106.371,309.195a6.076,6.076,0,0,1-2.311.227,6.08,6.08,0,0,1-2.311-.227,6.07,6.07,0,0,1,2.311-.228A6.066,6.066,0,0,1,106.371,309.195Z" transform="translate(-101.749 -308.967)" fill="#760f14"/>
          </g>
        </g>
        <g id="Group_3800" data-name="Group 3800" transform="translate(40.16 67.979)">
          <g id="Group_3799" data-name="Group 3799">
            <path id="Path_3187" data-name="Path 3187" d="M115.473,309.195a6.076,6.076,0,0,1-2.311.227,6.08,6.08,0,0,1-2.311-.227,6.07,6.07,0,0,1,2.311-.228A6.066,6.066,0,0,1,115.473,309.195Z" transform="translate(-110.851 -308.967)" fill="#760f14"/>
          </g>
        </g>
        <g id="Group_3802" data-name="Group 3802" transform="translate(48.098 67.979)">
          <g id="Group_3801" data-name="Group 3801">
            <path id="Path_3188" data-name="Path 3188" d="M124.575,309.195a11.891,11.891,0,0,1-4.622,0,11.848,11.848,0,0,1,4.622,0Z" transform="translate(-119.953 -308.967)" fill="#760f14"/>
          </g>
        </g>
        <g id="Group_3804" data-name="Group 3804" transform="translate(56.036 67.979)">
          <g id="Group_3803" data-name="Group 3803">
            <path id="Path_3189" data-name="Path 3189" d="M133.677,309.195a11.892,11.892,0,0,1-4.622,0,11.848,11.848,0,0,1,4.622,0Z" transform="translate(-129.055 -308.967)" fill="#760f14"/>
          </g>
        </g>
        <g id="Group_3806" data-name="Group 3806" transform="translate(38.087 72.629)">
          <g id="Group_3805" data-name="Group 3805">
            <path id="Path_3190" data-name="Path 3190" d="M133.827,314.525c0,.126-5.676.228-12.675.228s-12.677-.1-12.677-.228,5.675-.227,12.677-.227S133.827,314.4,133.827,314.525Z" transform="translate(-108.474 -314.298)" fill="#760f14"/>
          </g>
        </g>
        <g id="Group_3808" data-name="Group 3808" transform="translate(39.421 75.297)">
          <g id="Group_3807" data-name="Group 3807">
            <path id="Path_3191" data-name="Path 3191" d="M118.9,317.585a21.934,21.934,0,0,1-4.447.228,21.945,21.945,0,0,1-4.449-.228,21.977,21.977,0,0,1,4.449-.227A21.966,21.966,0,0,1,118.9,317.585Z" transform="translate(-110.004 -317.358)" fill="#760f14"/>
          </g>
        </g>
      </g>
    </g>
  </g>
</svg>
