<svg id="_029-instagram" data-name="029-instagram" xmlns="http://www.w3.org/2000/svg" width="23.057" height="23.057" viewBox="0 0 23.057 23.057">
  <path id="Path_918" data-name="Path 918" d="M16.188,0H6.869A6.877,6.877,0,0,0,0,6.869v9.319a6.877,6.877,0,0,0,6.869,6.869h9.32a6.877,6.877,0,0,0,6.869-6.869V6.869A6.877,6.877,0,0,0,16.188,0Zm4.549,16.188a4.549,4.549,0,0,1-4.549,4.549H6.869A4.549,4.549,0,0,1,2.32,16.188V6.869A4.549,4.549,0,0,1,6.869,2.32h9.32a4.549,4.549,0,0,1,4.549,4.549v9.319Z" fill="#fff"/>
  <path id="Path_919" data-name="Path 919" d="M138.963,133a5.963,5.963,0,1,0,5.963,5.963A5.97,5.97,0,0,0,138.963,133Zm0,9.607a3.644,3.644,0,1,1,3.644-3.644A3.644,3.644,0,0,1,138.963,142.607Z" transform="translate(-127.435 -127.435)" fill="#fff"/>
  <ellipse id="Ellipse_114" data-name="Ellipse 114" cx="1.429" cy="1.429" rx="1.429" ry="1.429" transform="translate(16.075 4.181)" fill="#fff"/>
</svg>
