<svg xmlns="http://www.w3.org/2000/svg" width="89.9" height="95.991" viewBox="0 0 89.9 95.991"><defs><style>.a{fill:#fdeaeb;}.b{fill:#f4ced5;}.c{fill:#ff9202;}.d{fill:#9f2f35;}.e{fill:#c85b61;}.f{fill:#f7f3f1;}.g{fill:#ffb516;}</style></defs><path class="a" d="M213.574,50.507a9.387,9.387,0,0,0,5.517,1.781h17.63v8.548L247.9,52.287h4.821a9.4,9.4,0,0,0,9.41-9.382V9.382A9.4,9.4,0,0,0,252.718,0H219.091a9.4,9.4,0,0,0-9.41,9.382V50.507Z" transform="translate(-172.228 0)"/><path class="b" d="M365.682,0h-8.06a9.4,9.4,0,0,1,9.411,9.382V42.906a9.4,9.4,0,0,1-9.41,9.382H352.8l-3.115,2.383v6.165l11.176-8.548h4.821a9.4,9.4,0,0,0,9.41-9.382V9.382A9.4,9.4,0,0,0,365.682,0Z" transform="translate(-285.192)"/><path class="c" d="M299.511,83.021l.97.785a8.638,8.638,0,0,0,5.435,1.924h13.769a2.3,2.3,0,0,0,2.294-2.408c-.058-1.235,0-12.486,0-13.754a2.3,2.3,0,0,0-2.3-2.3l-9.337-.028,1.143-2.707a9.8,9.8,0,0,0-.519-8.671,1.541,1.541,0,0,0-2.855.758,9.965,9.965,0,0,1-2.493,6.593l-5.954,6.737H297.5V83.02h2.011Z" transform="translate(-243.086 -44.484)"/><path class="d" d="M273.7,137.015h-6.286a.753.753,0,0,1-.753-.753V120.236a.753.753,0,0,1,.753-.752H273.7a.753.753,0,0,1,.752.752v16.026A.753.753,0,0,1,273.7,137.015Z" transform="translate(-218.199 -96.407)"/><path class="d" d="M57.127,176.233V142.4a7.41,7.41,0,0,0-7.421-7.4H23.188a7.41,7.41,0,0,0-7.421,7.4v26.437a7.41,7.41,0,0,0,7.421,7.4H37.756v6.8l8.813-6.8Z" transform="translate(-15.767 -108.926)"/><path class="e" d="M147.587,135H137.078a7.41,7.41,0,0,1,7.421,7.4v33.835h10.509V142.4A7.41,7.41,0,0,0,147.587,135Z" transform="translate(-113.648 -108.926)"/><path class="f" d="M86.083,199.121H80.749l.584-3.534h4.749a1.449,1.449,0,0,0,0-2.9h-4.27l.8-4.824a1.449,1.449,0,0,0-2.858-.472l-.876,5.3H75.382l.8-4.824a1.449,1.449,0,0,0-2.858-.472l-.876,5.3H66.633a1.449,1.449,0,0,0,0,2.9h5.333l-.584,3.534H66.633a1.449,1.449,0,0,0,0,2.9H70.9l-.8,4.824a1.45,1.45,0,0,0,2.858.472l.876-5.3h3.494l-.8,4.824a1.45,1.45,0,0,0,2.858.472l.876-5.3h5.812a1.449,1.449,0,0,0,0-2.9Zm-8.27,0H74.319l.584-3.534H78.4Z" transform="translate(-55.678 -150.257)"/><path class="g" d="M203.618,320.5H184.8a5.258,5.258,0,0,0-5.266,5.25v18.761a5.258,5.258,0,0,0,5.266,5.25h10.338v4.829l6.254-4.829h2.226a5.258,5.258,0,0,0,5.266-5.25V325.748A5.258,5.258,0,0,0,203.618,320.5Z" transform="translate(-147.904 -258.597)"/><path class="c" d="M268.806,320.5h-8.112a5.258,5.258,0,0,1,5.266,5.25v18.761a5.258,5.258,0,0,1-5.266,5.25h-.368v4.829l6.254-4.829h2.226a5.258,5.258,0,0,0,5.266-5.25V325.748A5.258,5.258,0,0,0,268.806,320.5Z" transform="translate(-213.092 -258.597)"/><path class="f" d="M226.8,380.206c4.528-2.4,6.874-4.443,6.874-7.608,0-4.365-5.347-5.456-6.874-2.182-1.746-3.383-6.874-2.182-6.874,2.182C219.924,375.762,222.27,377.8,226.8,380.206Z" transform="translate(-180.493 -297.299)"/></svg>