<svg xmlns="http://www.w3.org/2000/svg" xmlns:xlink="http://www.w3.org/1999/xlink" width="120.861" height="117.04" viewBox="0 0 120.861 117.04"><defs><style>.a{opacity:0.5;}.b{fill:url(#a);}.c{fill:#fff;}.d{fill:url(#b);}.e{fill:#ff9202;}.f{fill:#ffb516;}.g{fill:url(#c);}.h{fill:url(#d);}.i{fill:#69f0ae;}.j{fill:#f2989d;}.k{fill:#e0e0e0;}.l{fill:url(#e);}.m{fill:url(#f);}.n{fill:#be7c5e;}.o{fill:#fda57d;}.p{fill:#c85b61;}.q{fill:#9f2f35;}</style><linearGradient id="a" x1="0.502" y1="1.014" x2="0.502" y2="0.014" gradientUnits="objectBoundingBox"><stop offset="0" stop-color="gray" stop-opacity="0.251"/><stop offset="0.54" stop-color="gray" stop-opacity="0.122"/><stop offset="1" stop-color="gray" stop-opacity="0.102"/></linearGradient><linearGradient id="b" x1="1.068" y1="0.668" x2="1.068" y2="-0.332" xlink:href="#a"/><linearGradient id="c" x1="1.073" y1="0.27" x2="1.073" y2="-0.729" xlink:href="#a"/><linearGradient id="d" x1="0.251" y1="0.451" x2="0.251" y2="-0.549" xlink:href="#a"/><linearGradient id="e" x1="5.173" y1="0.029" x2="5.173" y2="-0.871" xlink:href="#a"/><linearGradient id="f" x1="0.5" y1="1" x2="0.5" y2="0" xlink:href="#a"/></defs><g transform="translate(0 -0.013)"><g class="a" transform="translate(10.26 0.013)"><rect class="b" width="69.996" height="96.712" transform="translate(0 29.049) rotate(-24.52)"/></g><path class="c" d="M0,0H64.156V88.948H0Z" transform="translate(14.379 31.058) rotate(-24.52)"/><rect class="d" width="33.84" height="8.197" transform="translate(26.048 19.897) rotate(-24.52)"/><path class="e" d="M418.884,59.092a4.845,4.845,0,1,0,6.314,2.443A4.788,4.788,0,0,0,418.884,59.092Zm3.17,6.949a2.8,2.8,0,1,1,1.323-3.675,2.763,2.763,0,0,1-1.323,3.677Z" transform="translate(-380.767 -53.506)"/><rect class="f" width="33.127" height="7.837" transform="translate(26.374 19.755) rotate(-24.52)"/><path class="e" d="M420.151,61.474a4.631,4.631,0,1,0,6.135,2.292A4.631,4.631,0,0,0,420.151,61.474Zm3.031,6.644a2.671,2.671,0,1,1,1.322-3.54,2.671,2.671,0,0,1-1.322,3.54Z" transform="translate(-381.887 -55.563)"/><rect class="g" width="14.605" height="14.605" transform="translate(20.64 41.946) rotate(-24.52)"/><rect class="h" width="14.605" height="14.605" transform="translate(32.696 68.258) rotate(-24.52)"/><rect class="i" width="13.536" height="13.536" transform="translate(21.347 42.21) rotate(-24.52)"/><rect class="j" width="13.536" height="13.536" transform="translate(33.248 68.299) rotate(-24.52)"/><rect class="k" width="18.554" height="1.295" transform="translate(43.499 36.699) rotate(-24.52)"/><rect class="k" width="30.635" height="1.295" transform="translate(44.306 38.466) rotate(-24.52)"/><rect class="k" width="28.477" height="1.295" transform="translate(45.11 40.232) rotate(-24.52)"/><rect class="k" width="18.554" height="1.295" transform="translate(55.4 62.789) rotate(-24.52)"/><rect class="k" width="30.635" height="1.295" transform="translate(56.206 64.554) rotate(-24.52)"/><rect class="k" width="28.477" height="1.295" transform="translate(57.011 66.322) rotate(-24.52)"/><path class="l" d="M194.231,305.384l3.171,1.03,1.043-6.1,1.543.422-1.736,7.546-4.783-2.1Z" transform="translate(-167.047 -259.284)"/><path class="c" d="M197.812,308.973l2.757.895.907-5.307,1.341.367-1.509,6.561-4.159-1.822Z" transform="translate(-170.224 -262.954)"/><path class="c" d="M285.492,501.183l2.757.895.907-5.307,1.341.367-1.509,6.561-4.159-1.822Z" transform="translate(-245.93 -428.913)"/><path class="m" d="M252.1,120.153l-11.024,4.3a31.67,31.67,0,0,1-10.765-2.759,17.038,17.038,0,0,0-15.023.113c-10.789.258-16.728-1.124-19.9-2.432l.836-1.715L185.058,113.3,157.12,100.78V152.1l9.777,4.357,5.244-12.581,11.517,5.326,2.211-5.619,7.562,5.612.515.433-.709.736a3.7,3.7,0,0,0,0,5.082h0a3.365,3.365,0,0,0,4.889,0l-.388.41a3.7,3.7,0,0,0,0,5.082h0a3.365,3.365,0,0,0,4.889,0l2.24-2.329h0l-1.538,1.6a3.7,3.7,0,0,0,0,5.082h0a3.365,3.365,0,0,0,4.889,0l2.211-2.3h0l-.93.967a2.581,2.581,0,0,0,0,3.551,2.35,2.35,0,0,0,3.414,0l1.475-1.532a30.977,30.977,0,0,0,5.587,3.551c4.183,1.45,4.183-1.454,4.183-1.454,5.587,2.9,8.382-2.9,8.382-2.9,6.984,2.9,6.984-4.357,6.984-4.357,1.745,1.21,3,.656,3.884-.41a4.732,4.732,0,0,0,.522-5.12l6.676-6.169,2.887,5.9,11.517-5.326,5.244,11.627,7.723-3.449V107.084Z" transform="translate(-157.12 -89.862)"/><path class="n" d="M545.263,341.618l-12.158,10.806-9.455-17.561,21.613-5.4Z" transform="translate(-452.133 -284.453)"/><path class="o" d="M362.484,231.69s3.9,5.4,27.016,4.052L403.009,256l9.052,10.184a4.306,4.306,0,0,1,.107,5.65,2.561,2.561,0,0,1-3.756.376s0,6.754-6.754,4.052c0,0-2.7,5.4-8.1,2.7,0,0,0,2.7-4.052,1.351s-25.666-18.91-25.666-18.91l-9.455-6.754Z" transform="translate(-327.439 -202.893)"/><path class="n" d="M547.779,254.644a31.434,31.434,0,0,1-11.609-2.621,16.955,16.955,0,0,0-16.2,1.048,15.289,15.289,0,0,0-7.3,13.73s5.253,5.4,10.806-5.4h4.052s3.9,13.509,14.859,12.155,13.509-2.7,13.509-2.7Z" transform="translate(-464.105 -219.092)"/><rect class="n" width="6.687" height="10.507" rx="3.343" transform="translate(45.627 59.641) rotate(45)"/><rect class="n" width="6.687" height="10.507" rx="3.343" transform="translate(41.274 54.538) rotate(45)"/><rect class="n" width="6.687" height="11.461" rx="3.343" transform="translate(51.705 63.017) rotate(45)"/><rect class="n" width="4.669" height="7.641" rx="2.335" transform="translate(55.683 68.496) rotate(45)"/><path class="c" d="M627.084,258.927l-12.156,5.4L602.77,234.612l10.807-4.052Z" transform="translate(-520.447 -199.06)"/><path class="c" d="M108.25,209.468l12.156,5.4,12.158-29.717L121.757,181.1Z" transform="translate(-93.466 -156.355)"/><path class="p" d="M9.34,92.09l27.016,12.156L18.8,144.771,9.34,140.719Z" transform="translate(-8.064 -79.502)"/><path class="q" d="M708.916,141.54,681.9,153.7l17.561,40.523,9.455-4.052Z" transform="translate(-588.77 -122.198)"/></g></svg>