<svg xmlns="http://www.w3.org/2000/svg" xmlns:xlink="http://www.w3.org/1999/xlink" width="240.551" height="236.349" viewBox="0 0 240.551 236.349"><defs><style>.a{fill:none;}.b,.d,.l,.o{isolation:isolate;}.c{fill:#9f2f35;}.d,.o{fill:#4d0004;}.d{opacity:0.5;}.e{fill:url(#a);}.f,.l{fill:#f2989d;}.g{fill:#fdeaeb;}.h{clip-path:url(#b);}.i{fill:#ffb516;}.j{fill:#ff9202;}.k{fill:#fff8e1;}.l{mix-blend-mode:multiply;}.m{fill:#c85b61;}.n{fill:url(#c);}.o{opacity:0.2;}</style><linearGradient id="a" x1="0.5" y1="1" x2="0.5" gradientUnits="objectBoundingBox"><stop offset="0" stop-color="#9f2f35" stop-opacity="0.502"/><stop offset="0.35" stop-color="#9f2f35" stop-opacity="0.502"/><stop offset="0.4" stop-color="#9f2f35" stop-opacity="0.502"/><stop offset="0.69" stop-color="#9f2f35" stop-opacity="0.231"/><stop offset="1" stop-color="#9f2f35" stop-opacity="0"/></linearGradient><clipPath id="b"><path class="a" d="M146.433,9.44H41.07V187.007H180.263V43.259Z" transform="translate(-41.07 -9.44)"/></clipPath><linearGradient id="c" x1="0.5" y1="1" x2="0.5" gradientUnits="objectBoundingBox"><stop offset="0" stop-color="#4d0004"/><stop offset="1" stop-color="#c85b61"/></linearGradient></defs><g class="b"><path class="c" d="M185.146,89.42H83.931c-19.979,0-14.379-16.58-34.105-16.58h-36.8A6.975,6.975,0,0,0,6.05,79.8V229.053H192.121V96.384A6.975,6.975,0,0,0,185.146,89.42Z" transform="translate(0.606 7.296)"/><path class="d" d="M6.05,225.137H138.015L59.3,111.82a74.25,74.25,0,0,0-39.925,14.5,68.3,68.3,0,0,0-13.323,13.2Z" transform="translate(0.606 11.201)"/><path class="e" d="M193.9,230.573H35.282L0,0H229.187Z"/><rect class="f" width="134.638" height="162.88" transform="translate(32.829 29.693)"/><path class="g" d="M146.433,9.44H41.07V187.007H180.263V43.259Z" transform="translate(4.114 0.946)"/><g class="h" transform="translate(45.184 10.386)"><rect class="i" width="52.06" height="52.06" transform="translate(20.386 24.82)"/><path class="j" d="M83.171,59.081H99.553A16.381,16.381,0,1,1,83.171,42.7Z" transform="translate(-38.494 -6.108)"/><path class="k" d="M84.84,55.211V38.83a16.381,16.381,0,0,1,16.381,16.381Z" transform="translate(-36.686 -6.496)"/><g transform="translate(20.386 24.82)"><rect class="l" width="105.495" height="3.3" transform="translate(0 58.32)"/><rect class="l" width="100.269" height="3.3" transform="translate(0 68.111)"/><rect class="l" width="104.12" height="3.3" transform="translate(0 77.903)"/><rect class="l" width="48.957" height="3.3" transform="translate(58.034)"/><rect class="l" width="41.729" height="3.3" transform="translate(58.034 9.824)"/><rect class="l" width="48.319" height="3.3" transform="translate(58.034 19.638)"/><rect class="l" width="36.228" height="3.3" transform="translate(58.034 29.462)"/></g></g><path class="m" d="M136.84,43.259h33.83L136.84,9.44Z" transform="translate(13.707 0.946)"/><path class="n" d="M192.11,225.14H6.05L55.26,114.749a4.984,4.984,0,0,1,4.555-2.959H234.962a4.995,4.995,0,0,1,4.555,7.019Z" transform="translate(0.606 11.198)"/><path class="o" d="M44.357,129.06l-.847,1.9H229.57l.847-1.9Z" transform="translate(4.358 12.927)"/><path class="o" d="M224.49,142.363l.847-1.9H39.277l-.847,1.9Z" transform="translate(3.849 14.069)"/></g></svg>